<?xml version="1.0" encoding="UTF-8"?>
<svg id="_レイヤー_2" data-name="レイヤー 2" xmlns="http://www.w3.org/2000/svg" viewBox="0 0 512 512">
  <defs>
    <style>
      .cls-1 {
        letter-spacing: -.02em;
      }

      .cls-2 {
        letter-spacing: -.07em;
      }

      .cls-3 {
        fill: none;
      }

      .cls-4, .cls-5 {
        fill: #4a4d5b;
      }

      .cls-6 {
        letter-spacing: 0em;
      }

      .cls-5 {
        font-family: Sitka-TextBold, Sitka;
        font-size: 28.3px;
        font-variation-settings: 'opsz' 11, 'wght' 700;
        font-weight: 700;
      }
    </style>
  </defs>
  <g id="_レイヤー_1-2" data-name="レイヤー 1">
    <rect class="cls-3" width="512" height="512"/>
    <g>
      <path class="cls-4" d="M75.39,160c0-26.51,25.5-48,56.96-48h73.57c15.73,0,28.48,10.75,28.48,24v30c0,13.26-12.75,24-28.48,24h-42.72c-12.45,0-22.54,8.51-22.54,19v94c0,10.49,10.09,19,22.54,19h42.72c15.73,0,28.48,10.74,28.48,24v30c0,13.26-12.75,24-28.48,24h-73.57c-31.46,0-56.96-21.49-56.96-48v-192Z"/>
      <rect class="cls-4" x="252.72" y="112" width="45.97" height="45.15" rx="8" ry="8"/>
      <rect class="cls-4" x="321.68" y="112" width="45.97" height="45.15" rx="8" ry="8"/>
      <rect class="cls-4" x="252.72" y="179.72" width="45.97" height="45.15" rx="8" ry="8"/>
      <rect class="cls-4" x="321.68" y="179.72" width="45.97" height="45.15" rx="8" ry="8"/>
      <rect class="cls-4" x="390.64" y="179.72" width="45.97" height="45.15" rx="8" ry="8"/>
      <rect class="cls-4" x="252.72" y="247.45" width="45.97" height="45.15" rx="8" ry="8"/>
      <rect class="cls-4" x="321.68" y="247.45" width="45.97" height="45.15" rx="8" ry="8"/>
      <text class="cls-5" transform="translate(246.39 383.11)"><tspan class="cls-2" x="0" y="0">T</tspan><tspan x="16.76" y="0">omeit</tspan><tspan class="cls-6" x="97.03" y="0">-</tspan><tspan class="cls-1" x="108.06" y="0">o</tspan><tspan x="124.25" y="0">.com</tspan></text>
    </g>
  </g>
</svg>